# xmcd
#
# Track frame offsets: 
#        150
#        12267
#        24210
#        37772
#        53386
#        63643
#        73585
#        84847
#        98074
#        106319
#        121847
#        133697
#        148921
#        164266
#        178240
#        193458
#        207727
#        223687
#        243732
#        253058
#
# Disc length: 3576 seconds
#
# Revision: 1
# Processed by: cddbd v1.5.2PL0 Copyright (c) Steve Scherf et al.
# Submitted via: ExactAudioCopyFreeDBPlugin 1.0
#
DISCID=240df614
DTITLE=Misc - Tranquility Vol2 Beautiful Dreamers
DYEAR=1900
DGENRE=New Age
TTITLE0=Beautiful Dreamers
TTITLE1=Catch a Falling Star
TTITLE2=There's a Kind of Hush
TTITLE3=Bright Eyes
TTITLE4=When you wish upon a star
TTITLE5=Happy Talk
TTITLE6=Lullaby
TTITLE7=I have a Dream
TTITLE8=Mr Sandman
TTITLE9=Can you feel the love tonight
TTITLE10=Dream a little dream of me
TTITLE11=You are so beautiful
TTITLE12=Annies Song
TTITLE13=Scarlet Ribbons
TTITLE14=Go to sleep my baby
TTITLE15=Have I told you lately
TTITLE16=One day in your life
TTITLE17=You make me feel brand new
TTITLE18=Isn't she lovely
TTITLE19=Over the Rainbow
EXTD=
EXTT0=
EXTT1=
EXTT2=
EXTT3=
EXTT4=
EXTT5=
EXTT6=
EXTT7=
EXTT8=
EXTT9=
EXTT10=
EXTT11=
EXTT12=
EXTT13=
EXTT14=
EXTT15=
EXTT16=
EXTT17=
EXTT18=
EXTT19=
PLAYORDER=
